<svg id="_1-10" data-name="#1-10" xmlns="http://www.w3.org/2000/svg" xmlns:xlink="http://www.w3.org/1999/xlink" viewBox="0 0 400 300"><defs><linearGradient id="linear-gradient" x1="190.07" y1="204.17" x2="252.04" y2="133.24" gradientTransform="translate(-70.99 30.56) rotate(-0.8)" gradientUnits="userSpaceOnUse"><stop offset="0" stop-color="#e6e7eb"/><stop offset="0.92" stop-color="#a7a5a6"/></linearGradient><linearGradient id="linear-gradient-2" x1="305.2" y1="166.56" x2="336.83" y2="146.35" gradientTransform="matrix(1, 0, 0, 1, 0, 0)" xlink:href="#linear-gradient"/><linearGradient id="linear-gradient-3" x1="48.57" y1="205.23" x2="57.52" y2="188.51" gradientTransform="matrix(1, 0, 0, 1, 0, 0)" xlink:href="#linear-gradient"/></defs><title>9_Pie Chart_isometric</title><path d="M12.08,189.16l146.3,84.47a24,24,0,0,0,24,0L384.7,156.84a9.73,9.73,0,0,0,0-16.84L234.51,52.84a12.61,12.61,0,0,0-12.64,0L12.08,174A8.78,8.78,0,0,0,12.08,189.16Z" fill="#e6e7eb"/><path d="M107.3,150.32c-3.54.84-43.2,27.29-43.2,27.29s-1.76,31.27,40.55,52.89S173.53,244,173.53,244l85.66-51.07" fill="url(#linear-gradient)"/><path d="M329.41,157.63s-33.45,23.62-35.86,22.5-8.57-6.61-7.91-8.15,30.76-18.91,30.76-18.91,4.25-3.89,6.85-3.48S329.41,157.63,329.41,157.63Z" fill="url(#linear-gradient-2)"/><path d="M272,165l-.07,3.14s-.36,2.69-1.48,3.78-5.1,2.23-4.68,4,2.3,2.65,4.6,2,4.38-1.17,5.78-3.13,2.2-6.23,2.2-6.23-.4,5.05.21,5a25,25,0,0,0,2.75-.84c.28,0-.81-7.27-1.7-9.12A11.57,11.57,0,0,1,272,165Z" fill="#603813"/><path d="M281.28,109.76c-.76.27-14.36,16.57-14.57,21s.81,33.16,2.33,34.3,8,2,13.59-1.39c0,0-4-28.36-2.36-30.76s14.66-10.62,15.29-13.78" fill="#ffcb44"/><path d="M238.72,47.16c-13.89-5.61-30.77-8.9-49-8.9-44.53,0-81.13,19.68-85.34,44.86h0v74.12l85.21,3.29L238.73,122V47.16Z" fill="#68e1fd"/><polygon points="190.31 82.61 188.81 151.36 238.68 114.1 238.73 47.42 190.31 82.61" opacity="0.1"/><path d="M204,197.45v19.26s23.56-1.85,42.06-12.83,22.72-20.55,23.81-29.37c.17-1.41.3-23.4.3-23.4" fill="#c90180"/><path d="M188.81,151.11l49.87-37.26s29.57,10.1,31.48,37.26-39.22,44-66.16,46.34Z" fill="#f0008d"/><polygon points="189.41 125.6 104.29 126.45 104.4 83.75 190.31 82.61 189.41 125.6" opacity="0.25"/><path d="M205.55,162v55.61s-34.42,5.82-69.52-10.26c-24.75-11.34-29.21-24.88-31.51-35l0-58.84" fill="#edaf24"/><path d="M104.51,113.5h85.15l15.9,48.5s-44.15,5.87-76.83-14C100.4,130.74,104.51,113.5,104.51,113.5Z" fill="#ffcb44"/><path d="M257.47,112.84a.68.68,0,0,0-1-.84h0a.74.74,0,0,0-.5-.29.71.71,0,0,0-.21-.58c-.06-.51-.74-.92-1.13-.43l-.66.83-.16.09a.62.62,0,0,0-.56.15.65.65,0,0,0-.21.1c-.35.24-.69.5-1,.77a.52.52,0,0,0-.6.2,23.8,23.8,0,0,1-3.7,3.79c-1.13.91-2.51,1.57-3,3a.67.67,0,0,0,.64.85,2.93,2.93,0,0,0,.71-.11l-.72.88a2,2,0,0,0-.59,1.56.68.68,0,0,0,.85.64,4.19,4.19,0,0,0,.84-.4,1.53,1.53,0,0,0-.17.44.86.86,0,0,0,1,1,2.46,2.46,0,0,0,1.42-.9.92.92,0,0,0,1,.37.67.67,0,0,0,.63-.29l.07-.09a6.28,6.28,0,0,0,1-1.45l1.53-2.16a.45.45,0,0,0,.18-.23q.75-.07.76.48a1.08,1.08,0,0,1,0,.35c0,.23,0,.46,0,.69a3.13,3.13,0,0,0,.14,1.16c.19.5.72,1.11,1.33,1s.63-.89.69-1.39c.12-1,.19-2.1.23-3.15a13.2,13.2,0,0,1,1.32-3.27.62.62,0,0,0-.28-.91.52.52,0,0,0,0-.43l.44-.39A.63.63,0,0,0,257.47,112.84Z" fill="#f9bfa0"/><path d="M248,117.61a31.57,31.57,0,0,1-2.58,3c-.2.21.12.52.32.32a32.45,32.45,0,0,0,2.65-3.12C248.59,117.6,248.2,117.38,248,117.61Z" fill="#603813"/><path d="M249.21,118.54q-1.4,2.49-3,4.86c-.16.24.23.46.38.23q1.58-2.37,3-4.86A.22.22,0,0,0,249.21,118.54Z" fill="#603813"/><path d="M250.85,119.42q-1.1,2.12-2.35,4.15c-.15.24.23.47.38.22q1.26-2,2.35-4.15C251.36,119.39,251,119.16,250.85,119.42Z" fill="#603813"/><path d="M322.75,150.83s1.35,1.84.48,3.14-4.53,3.23-3.76,4.87,2.8,2.12,4.92,1.06,4.05-2,5-4.25.87-6.55.87-6.55.65,5,1.24,4.88a25,25,0,0,0,2.52-1.39c.29-.11-2.8-8.31-3.86-8.89s-7.77-2-7.77-2L321,147.17Z" fill="#603813"/><path d="M281.09,112c0,.8,4.46,20.05,12.57,30.24s26.42,9.87,26.42,9.87,6-7.32,5.41-11.46c0,0-15.28-4.14-17.51-6.6s-5.59-25.53-12.66-28.72" fill="#ffcb44"/><path d="M289.31,93.61l-12.09,17.12c4.14,6.86,18.56,4.85,18.67-2.66a16,16,0,0,0-.31-3.27C293.45,101.09,291.44,97.32,289.31,93.61Z" fill="#f99393"/><path d="M268,122.31a.68.68,0,0,1,1,.74h0a.74.74,0,0,1,.4.42.71.71,0,0,1,.61.08c.51-.06,1.06.51.68,1l-.66.83-.05.18a.62.62,0,0,1,0,.58.65.65,0,0,1,0,.23c-.16.4-.33.79-.52,1.18a.52.52,0,0,1-.06.63,23.8,23.8,0,0,0-2.85,4.47c-.63,1.31-1,2.8-2.24,3.63a.67.67,0,0,1-1-.44,2.93,2.93,0,0,1-.06-.71l-.69.9a2,2,0,0,1-1.39.93.68.68,0,0,1-.82-.68,4.19,4.19,0,0,1,.2-.91,1.53,1.53,0,0,1-.39.27.86.86,0,0,1-1.23-.73,2.46,2.46,0,0,1,.55-1.58.92.92,0,0,1-.58-.89.67.67,0,0,1,.14-.68l.08-.09a6.28,6.28,0,0,1,1.18-1.33l1.76-2a.45.45,0,0,1,.18-.22q-.1-.75-.64-.63a1.08,1.08,0,0,0-.35,0c-.23,0-.45.13-.67.18a3.13,3.13,0,0,1-1.16.13c-.53-.07-1.24-.45-1.26-1.07s.72-.82,1.19-1c1-.35,2-.66,3-.94a13.2,13.2,0,0,0,2.88-2,.62.62,0,0,1,.95.07.52.52,0,0,1,.42-.08l.28-.51A.63.63,0,0,1,268,122.31Z" fill="#f9bfa0"/><path d="M265.53,132.58a31.57,31.57,0,0,0-2.36,3.2.22.22,0,0,1-.38-.24,32.45,32.45,0,0,1,2.43-3.29C265.41,132,265.71,132.36,265.53,132.58Z" fill="#603813"/><path d="M264.36,131.65q-2.1,1.93-4.05,4c-.2.21-.5-.12-.31-.32q2-2.08,4.05-4C264.26,131.13,264.57,131.45,264.36,131.65Z" fill="#603813"/><path d="M263.13,130.25q-1.82,1.55-3.51,3.23c-.2.2-.51-.12-.31-.32q1.69-1.68,3.51-3.23C263,129.74,263.34,130.07,263.13,130.25Z" fill="#603813"/><path d="M272.68,88.47s-.57,1.2-1,1.36c-1.37.48-8.38,4.58-14.8,14.14-7.72,11.49-6.74,10.13-6.74,10.13s5.55-.46,7.41,4.72c0,0,10.88-15.44,11.22-15.78.63-.63,3.88,4.24,3.88,4.24l-9,15.28s5.17,5.48,9.64,4.94c0,0,16.34-24.07,17.32-31.47S274.75,80.41,272.68,88.47Z" fill="#f99393"/><path d="M286.72,100.3A70.11,70.11,0,0,1,272.78,127c-.37.44.37.93.74.5a70.72,70.72,0,0,0,14-26.93C287.71,100,286.87,99.75,286.72,100.3Z" fill="#603813"/><path d="M275,102.77c-.64,1.24-1.31,2.48-2,3.7a47.39,47.39,0,0,1-3.7-4.06c-.36-.45-1,.19-.63.63a47.39,47.39,0,0,0,3.88,4.24,166.07,166.07,0,0,1-9.06,14.46c-.33.47.44.92.77.45a166.09,166.09,0,0,0,11.49-19C276.08,102.71,275.31,102.26,275,102.77Z" fill="#603813"/><path d="M269.44,86.1c-.16.6,1.8,11.54,7.27,8.81s2.31-11.37.6-12.23S270.38,82.59,269.44,86.1Z" fill="#f9bfa0"/><path d="M299.32,94.21a5.47,5.47,0,0,0-3-4.15,12.44,12.44,0,0,0-2.43-.91c-1.18-.36-1.58-.69-1.79-1.93a5.36,5.36,0,0,0-3.58-4.38,7,7,0,0,0-3.34-.05c-1.21.2-2.48.57-3.57-.16a1.31,1.31,0,0,0-.28-.14c-1.39-1.3-3.65-2.82-8-1.94-5.91,1.18-6.81,5.47-5.93,8a4.21,4.21,0,0,0,3.25,2.8s-1-3.67-1.31-5.12c.17.46.74,1.06,2.57,1,2.92-.16,6.94-1,6.74,2.15-.08,1.21-.24,2.15-.31,3a4.76,4.76,0,0,0,.65,3.5,3.7,3.7,0,0,0,4.76,1.13c1.7-.74,3.65-2.71,5.23-.61,1.1,1.47,1.87,2.81,3.76,3.35A5.17,5.17,0,0,0,299.32,94.21Z" fill="#603813"/><polyline points="35.08 183.91 17.58 192.33 60.67 217.21 86.17 205.78" fill="url(#linear-gradient-3)"/><path d="M30.54,159.11v27.15c0,2.7,4.85,4.88,10.83,4.88S52.2,189,52.2,186.26V159.11Z" fill="#68e1fd"/><path d="M30.54,159.11v27.15c0,2.7,4.85,4.88,10.83,4.88S52.2,189,52.2,186.26V159.11Z" opacity="0.1"/><ellipse cx="41.37" cy="159.11" rx="10.83" ry="4.88" fill="#68e1fd"/><ellipse cx="57.56" cy="196.02" rx="10.83" ry="4.88" fill="#edaf24"/><polyline points="46.73 196.02 46.73 176.5 68.39 176.5 68.39 196.02 60.45 198.66" fill="#edaf24"/><ellipse cx="57.56" cy="176.5" rx="10.83" ry="4.88" fill="#ffcb44"/><ellipse cx="76.62" cy="203.48" rx="10.83" ry="4.88" fill="#c90180"/><polyline points="65.79 203.48 65.79 191.89 87.45 191.89 87.45 203.48 79.51 206.12" fill="#c90180"/><ellipse cx="76.62" cy="192.33" rx="10.83" ry="4.88" fill="#f0008d"/></svg>